<?xml version="1.0" standalone="no"?>
<!DOCTYPE svg PUBLIC "-//W3C//DTD SVG 20010904//EN"
 "http://www.w3.org/TR/2001/REC-SVG-20010904/DTD/svg10.dtd">
<svg version="1.0" xmlns="http://www.w3.org/2000/svg"
 width="300.000000pt" height="247.000000pt" viewBox="0 0 300.000000 247.000000"
 preserveAspectRatio="xMidYMid meet">
<metadata>
Created by potrace 1.10, written by Peter Selinger 2001-2011
</metadata>
<g transform="translate(0.000000,247.000000) scale(0.100000,-0.100000)"
fill="#000000" stroke="none">
<path d="M1367 2204 c-4 -4 -7 -16 -7 -26 0 -12 -7 -18 -23 -18 -13 0 -28 -5
-35 -12 -9 -9 -12 -7 -12 9 0 29 -16 38 -23 12 -7 -25 39 -52 52 -30 5 8 18
10 35 5 16 -4 32 -1 41 6 13 10 19 9 35 -5 23 -20 39 -13 21 9 -18 21 10 26
31 5 15 -16 15 -19 -3 -35 -23 -21 -24 -34 -4 -34 8 0 15 6 15 14 0 8 6 16 14
19 18 7 14 38 -5 48 -68 36 -121 51 -86 25 15 -12 16 -14 2 -20 -26 -10 -30
-8 -35 14 -3 12 -8 18 -13 14z"/>
<path d="M1480 2203 c14 -3 33 -12 43 -20 9 -9 17 -13 17 -10 0 4 12 2 27 -4
19 -7 28 -7 34 2 6 10 11 9 25 -2 13 -11 18 -11 21 -1 5 14 53 17 53 2 0 -5
-10 -10 -22 -11 l-23 0 23 -11 c12 -6 22 -15 22 -20 0 -5 4 -7 8 -4 4 2 8 19
7 38 l0 33 -57 -2 c-33 -1 -58 2 -58 7 0 6 -8 10 -17 10 -15 0 -16 -2 -3 -10
27 -17 2 -22 -31 -6 -18 9 -46 15 -63 15 -27 -2 -28 -2 -6 -6z"/>
<path d="M1737 2153 c-16 -40 -7 -67 15 -45 8 8 8 12 1 12 -6 0 -8 11 -5 25 2
14 8 25 12 25 5 0 6 -8 3 -19 -3 -11 2 -21 13 -25 24 -9 31 2 9 18 -14 10 -15
15 -5 21 10 6 9 9 -1 16 -22 14 -26 11 -42 -28z"/>
<path d="M1222 2137 c18 -28 26 -33 47 -28 24 5 24 6 4 9 -13 2 -24 13 -27 28
-4 15 -14 24 -26 24 -20 0 -20 -1 2 -33z"/>
<path d="M1542 2140 c-14 -23 -16 -40 -4 -40 8 0 32 43 32 55 0 12 -16 3 -28
-15z"/>
<path d="M1806 2148 c4 -7 16 -19 27 -27 11 -8 16 -19 12 -30 -13 -32 -16 -69
-5 -76 6 -4 10 4 10 18 0 34 24 51 64 44 25 -4 37 -1 50 14 9 11 16 21 16 23
0 2 -23 6 -50 10 -28 4 -48 11 -45 16 3 5 -6 12 -21 16 -17 4 -29 2 -35 -7 -6
-10 -9 -11 -9 -1 0 6 -5 12 -11 12 -5 0 -7 -6 -3 -12z m109 -44 l30 -8 -33 -4
c-24 -2 -38 2 -47 15 -16 21 -8 40 8 20 7 -8 26 -18 42 -23z"/>
<path d="M1120 2131 c-8 -16 -21 -21 -48 -21 -38 0 -99 -39 -74 -48 6 -2 20 6
31 17 12 12 26 21 33 21 7 0 -3 -16 -22 -35 l-34 -35 -23 22 -23 21 -11 -31
c-9 -27 -16 -32 -42 -32 -39 -1 -67 -20 -67 -47 0 -10 -5 -24 -12 -31 -7 -7
-8 -12 -2 -12 6 0 15 5 22 12 6 6 15 8 19 4 4 -4 1 -11 -6 -16 -12 -7 -12 -11
1 -23 13 -14 15 -12 16 16 0 17 -4 38 -10 45 -16 19 8 34 45 29 23 -3 31 1 38
20 5 12 15 23 24 23 21 0 19 -13 -5 -35 -11 -10 -20 -23 -20 -29 0 -6 16 5 34
25 18 20 41 39 50 42 9 4 16 11 16 16 0 12 69 55 77 48 3 -3 -4 -19 -16 -35
-19 -28 -19 -42 2 -42 5 0 7 7 3 15 -3 9 3 19 14 25 13 7 20 7 20 1 0 -6 7 -8
15 -5 8 4 15 1 15 -5 0 -6 5 -11 10 -11 6 0 10 5 10 11 0 7 8 18 17 25 10 7
14 16 10 21 -5 4 -14 0 -21 -10 -19 -25 -52 -22 -60 6 -9 33 -8 37 10 30 12
-4 15 -2 12 8 -7 22 -36 22 -48 0z"/>
<path d="M1180 2131 c-13 -26 -13 -31 5 -31 9 0 15 9 15 25 0 30 -6 32 -20 6z"/>
<path d="M1402 2124 c-11 -12 -11 -17 2 -29 8 -8 16 -19 18 -23 5 -14 48 -25
48 -13 0 6 -6 11 -13 11 -18 0 -53 43 -39 48 13 4 17 22 5 22 -5 -1 -14 -7
-21 -16z"/>
<path d="M1335 2119 c-10 -15 1 -22 24 -14 12 3 19 11 16 16 -8 12 -32 11 -40
-2z"/>
<path d="M1657 2110 c-3 -11 -1 -22 3 -25 11 -7 32 30 23 39 -11 11 -21 6 -26
-14z"/>
<path d="M2009 2095 c-1 -3 -3 -9 -4 -15 -1 -5 -3 -14 -4 -19 0 -5 -10 -13
-21 -16 -25 -8 -26 -25 -1 -25 12 0 21 9 25 25 8 32 26 32 26 1 0 -25 15 -43
23 -29 10 16 -5 59 -24 71 -10 7 -20 10 -20 7z"/>
<path d="M1738 2079 c6 -7 12 -21 12 -31 0 -10 5 -18 10 -18 19 0 10 39 -12
51 -19 9 -21 9 -10 -2z"/>
<path d="M1245 2051 c-29 -15 -29 -16 -6 -19 24 -4 46 10 40 25 -2 5 -17 2
-34 -6z"/>
<path d="M1893 2055 c-26 -11 -32 -30 -7 -21 10 4 25 -1 36 -10 10 -10 21 -14
26 -10 4 4 0 13 -9 19 -9 7 -18 17 -20 22 -3 7 -11 7 -26 0z"/>
<path d="M1366 2033 c-11 -12 -6 -41 9 -46 17 -7 30 9 15 18 -6 4 -8 10 -5 15
7 11 -10 22 -19 13z"/>
<path d="M1142 2010 c-16 -26 -15 -30 4 -30 9 0 14 6 11 13 -2 6 3 17 12 24
14 11 14 12 1 13 -8 0 -21 -9 -28 -20z"/>
<path d="M1012 1998 c1 -7 -3 -23 -10 -35 -14 -26 -56 -31 -69 -9 -10 16 -53
31 -53 18 0 -13 29 -36 36 -29 4 3 13 -1 21 -9 8 -8 19 -12 24 -9 5 4 9 1 9
-4 0 -6 5 -11 10 -11 6 0 10 7 10 16 0 8 5 12 10 9 6 -3 10 -1 10 6 0 7 7 20
16 30 9 10 13 23 9 28 -9 15 -26 14 -23 -1z"/>
<path d="M2130 1995 c-7 -9 -10 -18 -7 -21 6 -7 47 18 47 28 0 14 -27 9 -40
-7z"/>
<path d="M2166 1971 c-8 -12 8 -54 27 -69 9 -8 13 -21 9 -34 -3 -15 -2 -19 7
-14 6 4 9 11 6 16 -3 5 -1 11 5 15 6 4 10 -6 10 -24 0 -36 17 -42 23 -8 3 21
4 20 16 -7 9 -23 9 -31 -1 -37 -17 -10 -3 -23 17 -16 19 8 20 41 1 56 -8 7
-12 23 -10 40 3 17 -1 33 -11 41 -13 11 -15 9 -15 -13 0 -20 -4 -24 -20 -20
-25 7 -26 19 -3 32 10 5 14 13 10 17 -4 5 -16 3 -27 -4 -15 -9 -21 -9 -26 0
-4 7 -2 14 4 16 7 2 12 8 12 13 0 12 -27 12 -34 0z"/>
<path d="M1120 1952 c0 -7 -7 -12 -16 -12 -9 0 -14 -6 -11 -12 2 -7 15 -11 28
-10 33 5 35 10 16 29 -11 11 -17 13 -17 5z"/>
<path d="M774 1926 c-3 -8 -15 -18 -25 -21 -11 -4 -18 -14 -17 -23 2 -11 -9
-22 -29 -31 -36 -16 -43 -31 -15 -31 23 1 68 40 77 68 4 13 14 22 27 22 11 0
18 5 16 12 -7 19 -27 21 -34 4z"/>
<path d="M2010 1930 c0 -11 20 -24 43 -27 28 -5 19 14 -13 26 -16 5 -30 6 -30
1z"/>
<path d="M797 1885 c-23 -17 -22 -22 8 -27 31 -6 37 2 21 24 -10 13 -15 14
-29 3z"/>
<path d="M2300 1877 c0 -9 5 -19 10 -22 6 -3 10 -14 10 -23 0 -20 17 -49 24
-41 9 9 -13 76 -29 89 -12 10 -15 9 -15 -3z"/>
<path d="M857 1854 c-13 -13 -7 -44 8 -44 16 0 17 5 6 33 -3 10 -10 15 -14 11z"/>
<path d="M2085 1826 c-14 -10 -16 -17 -7 -32 10 -17 11 -17 12 -1 0 9 7 17 15
17 8 0 15 4 15 9 0 17 -17 21 -35 7z"/>
<path d="M2364 1791 c1 -22 5 -28 22 -27 l21 1 -20 28 c-12 15 -22 27 -22 27
-1 0 -2 -13 -1 -29z"/>
<path d="M648 1803 c0 -4 -1 -15 -2 -23 -1 -8 -7 -15 -15 -15 -8 0 -16 -6 -18
-12 -3 -7 1 -13 7 -13 10 0 9 -4 0 -15 -7 -9 -10 -18 -7 -21 11 -11 25 6 32
37 8 37 31 48 49 24 10 -14 15 -15 21 -6 8 14 -5 31 -26 34 -8 2 -20 6 -26 10
-7 5 -14 5 -15 0z"/>
<path d="M1895 1756 c-136 -104 -320 -320 -433 -507 -45 -76 -46 -77 -94 -83
-60 -8 -109 -46 -90 -69 7 -8 26 -20 43 -27 29 -13 29 -13 12 -39 -90 -136
-307 -557 -319 -621 -13 -62 13 -22 99 153 75 151 237 447 257 470 8 9 184
-66 248 -107 65 -41 120 -94 150 -145 25 -43 27 -53 25 -154 -1 -59 2 -107 6
-107 26 0 34 37 36 173 1 91 10 185 24 262 32 182 23 165 84 159 l52 -4 -40
20 c-22 11 -45 20 -51 20 -13 0 6 96 82 417 36 152 43 196 34 212 -6 12 -15
21 -20 21 -4 0 -14 2 -22 5 -7 3 -44 -19 -83 -49z m105 -2 c0 -14 -13 -78 -29
-142 -16 -64 -46 -191 -66 -282 -20 -91 -38 -167 -40 -168 -2 -2 -96 -1 -209
3 l-205 8 69 101 c38 55 104 144 148 196 94 113 296 310 317 310 9 0 15 -10
15 -26z m-621 -646 c-6 -13 -13 -24 -14 -26 -4 -5 -55 21 -55 29 0 9 24 16 58
18 20 1 22 -1 11 -21z m475 -20 c-4 -24 -16 -105 -28 -180 l-22 -138 -19 36
c-34 63 -110 120 -253 191 -76 38 -139 69 -140 70 -2 1 4 15 14 32 l18 31 219
0 219 0 -8 -42z"/>
<path d="M735 1790 c-3 -5 4 -19 15 -30 21 -21 21 -23 4 -41 -20 -22 -12 -38
9 -18 26 26 26 56 1 78 -13 11 -26 16 -29 11z"/>
<path d="M836 1741 c-4 -6 -1 -18 8 -26 10 -11 17 -12 22 -4 3 6 0 18 -9 26
-10 10 -17 12 -21 4z"/>
<path d="M2353 1743 c-7 -2 -13 -11 -13 -20 0 -10 6 -12 23 -7 28 8 30 10 22
23 -7 12 -13 12 -32 4z"/>
<path d="M2407 1743 c-4 -6 -2 -32 5 -57 10 -37 16 -46 34 -46 13 0 26 -4 29
-10 3 -5 1 -10 -4 -10 -6 0 -11 -7 -11 -15 0 -8 5 -15 10 -15 6 0 10 4 10 10
0 5 7 7 15 4 8 -4 15 -1 15 5 0 6 -4 11 -9 11 -5 0 -14 14 -22 32 -7 17 -15
26 -17 20 -9 -29 -25 -8 -41 58 -4 16 -9 21 -14 13z"/>
<path d="M689 1738 c0 -2 -2 -16 -4 -31 -3 -24 -1 -26 11 -16 16 13 19 49 4
49 -5 0 -10 -1 -11 -2z"/>
<path d="M2273 1716 c9 -7 17 -18 17 -25 0 -14 13 -14 28 1 18 18 14 30 -8 23
-11 -4 -20 -2 -20 4 0 6 -8 11 -17 11 -17 -1 -17 -1 0 -14z"/>
<path d="M562 1678 c-7 -7 -12 -18 -12 -26 0 -12 3 -12 16 -2 13 11 16 10 21
-8 5 -22 14 -27 25 -16 7 6 -23 64 -32 64 -4 0 -11 -5 -18 -12z"/>
<path d="M617 1683 c-15 -14 -6 -25 18 -21 14 3 25 2 25 -2 0 -11 48 -60 60
-60 22 0 8 28 -20 40 -16 7 -28 16 -25 20 2 4 -7 12 -21 19 -29 13 -29 13 -37
4z"/>
<path d="M2303 1631 c-12 -19 -8 -31 10 -31 5 0 7 7 3 15 -3 10 1 15 13 15 10
0 22 -7 25 -16 3 -8 11 -12 17 -9 14 9 -18 45 -40 45 -9 0 -22 -9 -28 -19z"/>
<path d="M530 1625 c0 -8 9 -15 20 -15 15 0 20 -7 20 -25 0 -14 5 -25 10 -25
14 0 12 46 -2 57 -25 19 -48 23 -48 8z"/>
<path d="M2420 1609 c-13 -8 -13 -10 -1 -18 7 -5 10 -14 7 -20 -4 -6 0 -11 8
-11 10 0 16 9 16 24 0 29 -11 38 -30 25z"/>
<path d="M512 1588 c-18 -18 -15 -25 13 -30 32 -7 40 5 17 26 -14 12 -21 13
-30 4z"/>
<path d="M2474 1575 c-4 -8 -4 -22 -1 -29 4 -9 -2 -17 -13 -21 -22 -7 -22 -46
0 -53 8 -3 10 0 5 7 -4 7 0 20 8 29 18 21 30 82 16 82 -5 0 -12 -7 -15 -15z"/>
<path d="M559 1550 c0 -3 -3 -18 -5 -35 -3 -16 -11 -36 -19 -44 -12 -12 -16
-12 -31 0 -14 12 -19 10 -35 -10 -22 -27 -26 -49 -5 -32 8 6 33 17 57 24 38
11 44 17 50 47 4 19 3 39 -2 45 -5 5 -9 7 -10 5z"/>
<path d="M484 1519 l-19 -22 30 7 c36 9 39 12 30 25 -9 16 -20 13 -41 -10z"/>
<path d="M2510 1520 c0 -5 4 -10 9 -10 5 0 11 -10 15 -22 3 -15 9 -19 15 -13
16 16 1 55 -20 55 -11 0 -19 -4 -19 -10z"/>
<path d="M590 1475 c0 -8 -5 -15 -10 -15 -7 0 -7 -7 0 -21 7 -11 15 -18 18
-14 10 10 11 65 1 65 -5 0 -9 -7 -9 -15z"/>
<path d="M2413 1453 c-30 -6 -29 -19 1 -25 18 -4 26 0 29 14 3 10 2 17 -1 17
-4 -1 -17 -4 -29 -6z"/>
<path d="M2519 1452 c-1 -4 -1 -11 0 -15 1 -5 -8 -11 -19 -14 -24 -6 -25 -16
-3 -34 14 -12 16 -12 11 1 -4 14 13 40 26 40 3 0 6 -13 6 -30 0 -17 9 -39 20
-50 22 -22 26 -70 9 -102 -13 -25 -11 -27 24 -21 18 4 27 12 27 24 0 21 -16
26 -23 7 -3 -7 -6 -4 -6 8 -1 11 3 24 8 30 11 11 2 66 -9 59 -4 -3 -13 2 -20
10 -10 12 -9 15 4 15 9 0 16 7 16 15 0 8 -4 15 -10 15 -5 0 -10 -5 -10 -11 0
-5 -5 -7 -11 -3 -8 5 -7 9 1 14 18 11 6 36 -19 43 -12 3 -22 2 -22 -1z"/>
<path d="M520 1430 c0 -5 -9 -10 -21 -10 -13 0 -23 -8 -26 -21 -4 -14 -8 -17
-13 -9 -10 16 -30 4 -30 -17 0 -9 6 -13 15 -9 9 3 15 0 15 -9 0 -8 -6 -15 -13
-15 -14 0 -43 -58 -33 -67 3 -4 7 -4 9 -2 1 2 12 18 25 36 12 18 22 38 22 46
0 16 31 47 48 47 7 0 12 2 12 4 0 2 3 11 6 20 3 9 1 16 -5 16 -6 0 -11 -4 -11
-10z"/>
<path d="M2440 1385 c-11 -13 -9 -19 9 -36 27 -25 41 -18 16 8 -11 11 -14 18
-6 21 13 4 15 22 2 22 -5 0 -14 -7 -21 -15z"/>
<path d="M500 1360 c-13 -8 -13 -11 -1 -22 11 -10 14 -10 18 -1 3 8 14 11 29
7 15 -4 24 -2 24 6 0 7 -7 10 -15 6 -8 -3 -15 -1 -15 4 0 13 -20 13 -40 0z"/>
<path d="M2512 1363 c-10 -4 -7 -9 9 -17 12 -6 25 -18 27 -26 4 -12 2 -13 -9
-3 -16 13 -59 7 -59 -8 0 -5 13 -9 29 -9 16 0 34 -6 40 -14 10 -12 7 -15 -15
-18 -15 -2 -29 -9 -32 -15 -5 -17 28 -16 50 1 34 25 -3 122 -40 109z"/>
<path d="M486 1321 c-10 -15 16 -61 34 -61 9 0 25 7 36 15 18 14 17 14 -13 9
-29 -6 -33 -4 -33 14 0 23 -15 38 -24 23z"/>
<path d="M2413 1306 c4 -9 1 -16 -5 -16 -9 0 -9 -3 0 -12 14 -14 19 -10 24 16
1 10 -3 21 -11 24 -10 3 -12 0 -8 -12z"/>
<path d="M424 1248 c-7 -11 15 -29 30 -25 6 2 11 8 13 14 5 14 -35 24 -43 11z"/>
<path d="M505 1220 c-3 -5 -12 -7 -20 -3 -8 3 -15 1 -15 -4 0 -18 13 -23 27
-11 11 9 16 9 23 -2 12 -19 22 -8 14 14 -7 18 -20 21 -29 6z"/>
<path d="M407 1198 c-7 -26 2 -45 14 -27 6 11 9 10 15 -4 3 -9 10 -17 15 -17
15 0 10 30 -6 36 -8 4 -15 12 -15 20 0 22 -17 16 -23 -8z"/>
<path d="M2580 1200 c-13 -8 -13 -12 -1 -32 10 -16 10 -23 2 -26 -18 -6 -13
-19 9 -25 30 -8 45 25 19 41 -26 16 -25 35 2 27 15 -5 20 -3 17 6 -6 18 -29
22 -48 9z"/>
<path d="M476 1159 c3 -5 18 -9 35 -9 16 0 29 4 29 9 0 5 -16 9 -35 9 -19 0
-32 -4 -29 -9z"/>
<path d="M2550 1160 c0 -5 -6 -10 -14 -10 -20 0 -30 -54 -14 -79 13 -22 28
-28 28 -12 0 6 -4 13 -10 16 -16 10 -11 40 10 63 22 24 25 32 10 32 -5 0 -10
-4 -10 -10z"/>
<path d="M2443 1143 c-15 -6 -17 -33 -3 -33 6 0 10 6 10 14 0 9 7 12 20 9 11
-3 20 0 20 6 0 11 -25 14 -47 4z"/>
<path d="M400 1124 c0 -11 5 -14 16 -10 9 3 20 6 25 6 5 0 9 5 9 10 0 6 -11
10 -25 10 -16 0 -25 -6 -25 -16z"/>
<path d="M451 1114 c-8 -19 -16 -24 -31 -19 -24 8 -26 -3 -3 -20 16 -12 16
-14 0 -29 -21 -21 -22 -36 -2 -36 8 0 15 -9 15 -20 0 -11 -4 -20 -10 -20 -5 0
-10 -9 -10 -20 0 -25 9 -25 26 -2 13 18 17 13 39 -58 7 -22 6 -23 -9 -11 -9 7
-16 20 -16 27 0 19 -16 18 -24 -2 -8 -22 -8 -24 5 -24 7 0 18 -8 25 -17 12
-16 15 -16 24 -3 11 18 10 70 -3 70 -5 0 -7 6 -4 13 2 6 9 12 14 12 6 0 15 3
19 8 4 4 -6 7 -22 7 -25 0 -32 6 -41 33 -14 37 -6 87 12 87 8 0 15 10 18 23 4
22 4 22 14 -3 10 -22 12 -23 18 -7 15 38 -37 48 -54 11z"/>
<path d="M2583 1060 c-9 -22 -20 -40 -25 -40 -5 0 -6 -4 -3 -10 3 -5 11 -10
16 -10 6 0 7 5 4 10 -3 6 -1 10 4 10 17 0 13 -25 -9 -53 -23 -29 -25 -37 -7
-37 7 0 13 -9 14 -20 1 -17 -1 -18 -17 -8 -11 7 -23 9 -27 4 -4 -4 0 -12 10
-18 10 -5 22 -19 27 -31 7 -18 9 -18 9 -4 1 9 8 17 17 17 9 0 14 7 12 18 -1 9
2 23 6 31 7 11 5 13 -8 8 -24 -9 -31 17 -12 45 l16 22 0 -23 c0 -41 14 -13 15
30 1 29 -2 38 -12 35 -8 -3 -13 2 -13 13 0 10 7 22 16 25 8 3 12 10 9 16 -12
20 -27 9 -42 -30z"/>
<path d="M463 1050 c-7 -10 -10 -27 -6 -36 5 -12 9 -9 19 16 16 37 17 40 6 40
-4 0 -13 -9 -19 -20z"/>
<path d="M2516 1003 c-4 -9 -1 -20 6 -25 21 -12 31 -9 24 8 -3 9 -6 20 -6 25
0 15 -17 10 -24 -8z"/>
<path d="M2390 931 c0 -11 32 -31 49 -31 17 0 13 17 -6 24 -10 3 -24 9 -30 12
-7 3 -13 1 -13 -5z"/>
<path d="M2471 922 c-13 -25 -14 -42 -2 -42 10 0 25 50 17 57 -2 3 -9 -4 -15
-15z"/>
<path d="M552 899 c-12 -18 -11 -24 2 -37 20 -20 33 -8 15 14 -11 13 -11 18
-1 21 6 3 12 9 12 14 0 16 -15 10 -28 -12z"/>
<path d="M590 890 c0 -5 5 -10 10 -10 6 0 10 -7 10 -15 0 -8 4 -15 9 -15 10 0
21 36 13 44 -9 10 -42 7 -42 -4z"/>
<path d="M430 846 c0 -8 5 -18 10 -21 6 -4 8 -14 6 -23 -3 -10 -1 -24 4 -32 8
-13 10 -12 10 3 0 20 30 23 48 5 7 -7 12 -8 12 -2 0 11 -74 84 -85 84 -3 0 -5
-6 -5 -14z"/>
<path d="M2467 841 c-7 -27 3 -34 23 -16 19 18 50 10 50 -12 0 -10 8 -13 25
-11 26 3 35 22 12 24 -33 3 -37 5 -37 19 0 8 -9 15 -20 15 -11 0 -20 -5 -20
-11 0 -8 -4 -8 -14 0 -11 9 -15 7 -19 -8z"/>
<path d="M558 803 c-9 -2 -15 -10 -12 -18 3 -7 1 -16 -5 -19 -12 -8 -3 -34 21
-60 10 -11 18 -23 18 -28 0 -4 5 -8 10 -8 17 0 11 19 -12 42 -27 27 -30 55 -6
61 10 3 18 12 18 21 0 16 -2 17 -32 9z"/>
<path d="M2495 780 c-3 -11 -4 -24 -1 -29 3 -5 -2 -15 -11 -22 -10 -8 -14 -9
-10 -2 11 18 -36 12 -50 -6 -16 -22 -6 -33 18 -18 16 10 21 9 29 -3 5 -8 11
-12 12 -10 22 29 38 63 33 71 -4 5 -1 16 5 24 10 12 9 15 -3 15 -9 0 -18 -9
-22 -20z"/>
<path d="M2547 779 c-14 -8 -17 -18 -12 -40 4 -16 3 -29 -2 -27 -4 1 -25 -15
-46 -35 -26 -25 -33 -37 -22 -37 22 0 65 30 65 46 0 7 9 18 19 23 14 8 19 21
18 46 -1 19 -1 35 -1 35 -1 0 -9 -5 -19 -11z"/>
<path d="M475 747 c-6 -28 -3 -42 9 -56 9 -10 16 -27 16 -39 0 -12 5 -22 10
-22 6 0 10 10 10 21 0 16 5 20 20 16 13 -3 20 0 20 9 0 8 -6 11 -15 8 -8 -4
-15 -1 -15 5 0 6 -9 11 -20 11 -11 0 -20 7 -20 15 0 18 12 19 28 3 22 -22 12
6 -12 37 l-24 30 -7 -38z"/>
<path d="M596 741 c-7 -11 33 -43 44 -36 5 3 7 12 4 19 -6 16 -42 28 -48 17z"/>
<path d="M2310 672 c0 -10 22 -32 32 -32 15 0 8 28 -8 34 -21 8 -24 8 -24 -2z"/>
<path d="M592 648 c-6 -6 -22 -10 -37 -10 -15 0 -24 -5 -22 -12 2 -6 11 -10
21 -8 11 2 16 -4 16 -22 0 -14 5 -28 11 -31 7 -5 9 3 7 21 -2 19 3 34 16 45
11 9 15 18 9 22 -5 3 -15 1 -21 -5z"/>
<path d="M2499 637 c-14 -12 -35 -27 -45 -33 -22 -14 -19 -19 19 -28 20 -5 27
-3 27 9 0 8 -5 15 -11 15 -5 0 -8 4 -4 10 3 5 11 7 18 4 13 -5 41 32 29 40 -4
2 -19 -6 -33 -17z"/>
<path d="M2380 632 c0 -14 23 -32 42 -32 23 0 23 9 1 26 -20 15 -43 18 -43 6z"/>
<path d="M636 609 c-11 -10 -17 -21 -14 -24 7 -8 58 19 55 29 -6 17 -22 15
-41 -5z"/>
<path d="M535 590 c-8 -14 23 -63 35 -55 5 3 11 1 15 -5 7 -12 25 -4 25 11 0
5 -9 9 -20 9 -13 0 -24 10 -30 25 -10 27 -16 30 -25 15z"/>
<path d="M752 550 c1 -17 4 -33 8 -35 10 -6 23 43 15 55 -12 20 -24 9 -23 -20z"/>
<path d="M2343 553 c-7 -2 -13 -9 -13 -15 0 -6 6 -6 15 2 13 10 15 9 15 -9 0
-12 5 -19 10 -16 6 3 10 15 10 26 0 18 -12 23 -37 12z"/>
<path d="M2450 549 c0 -7 -10 -9 -24 -5 -23 6 -25 3 -31 -37 -9 -61 -20 -77
-37 -55 -7 10 -22 16 -33 14 -11 -2 -23 2 -27 8 -6 8 -11 7 -17 -3 -5 -7 -13
-11 -19 -7 -6 3 -13 2 -17 -4 -3 -6 1 -13 10 -17 10 -3 20 -1 24 6 9 13 54 0
66 -18 10 -17 -4 -32 -22 -22 -21 11 -53 2 -53 -15 0 -10 7 -13 24 -8 31 7 47
-2 39 -22 -3 -9 -13 -14 -24 -11 -23 6 -31 -4 -19 -22 13 -22 39 -5 58 37 11
24 22 37 31 34 10 -3 12 0 8 11 -3 9 1 21 9 27 8 7 14 9 14 4 0 -10 29 28 30
40 0 5 -7 3 -15 -4 -13 -11 -15 -8 -15 19 0 19 4 30 10 26 6 -4 8 -11 5 -16
-4 -5 1 -9 10 -9 8 0 20 12 25 26 12 32 12 34 0 34 -5 0 -10 -5 -10 -11z"/>
<path d="M572 510 c3 -8 15 -20 29 -27 13 -7 24 -21 24 -33 0 -11 4 -19 8 -17
7 2 31 -29 32 -43 0 -3 6 -14 12 -25 14 -24 29 -14 18 12 -5 10 -9 20 -10 23
-22 72 -30 90 -41 86 -7 -3 -15 2 -18 11 -4 8 -12 13 -20 10 -7 -3 -19 0 -26
6 -10 9 -11 9 -8 -3z"/>
<path d="M700 506 c0 -7 6 -19 14 -25 20 -17 27 -51 10 -51 -8 0 -14 -7 -14
-15 0 -8 5 -15 10 -15 6 0 10 5 10 11 0 8 5 7 15 -1 20 -16 29 -7 17 17 -5 10
-17 35 -26 56 -15 37 -36 50 -36 23z"/>
<path d="M760 375 c0 -13 36 -31 53 -27 4 1 7 -2 7 -8 0 -5 5 -10 10 -10 21 0
8 16 -30 37 -30 16 -40 18 -40 8z"/>
<path d="M721 371 c-8 -6 -11 -16 -7 -27 5 -12 10 -14 17 -7 16 16 7 45 -10
34z"/>
<path d="M951 363 c-12 -13 -12 -16 0 -24 21 -13 26 -11 24 11 -2 27 -8 30
-24 13z"/>
<path d="M2150 351 c0 -17 27 -37 37 -27 6 6 -20 46 -29 46 -5 0 -8 -9 -8 -19z"/>
<path d="M2228 359 c-29 -16 -20 -29 12 -18 17 6 30 15 30 20 0 12 -21 11 -42
-2z"/>
<path d="M783 304 c-28 -29 -29 -34 -2 -34 11 0 18 -4 14 -9 -3 -6 4 -9 15 -8
23 2 26 15 5 23 -8 4 -15 11 -15 16 0 6 6 5 15 -2 18 -15 20 0 3 22 -12 14
-15 14 -35 -8z"/>
<path d="M2255 320 c-12 -18 -14 -60 -3 -60 12 0 20 25 16 52 -2 19 -5 20 -13
8z"/>
<path d="M865 300 c3 -5 -1 -10 -10 -10 -11 0 -15 -5 -11 -15 3 -8 -1 -21 -9
-29 -16 -16 -10 -24 38 -44 22 -10 27 -9 27 3 0 8 -7 15 -15 15 -27 0 -35 32
-13 62 17 24 17 28 3 28 -9 0 -13 -4 -10 -10z"/>
<path d="M2020 299 c0 -17 20 -49 30 -49 6 0 10 7 10 15 0 8 -7 15 -15 15 -9
0 -12 6 -9 15 4 8 1 15 -5 15 -6 0 -11 -5 -11 -11z"/>
<path d="M2160 285 c-7 -9 -10 -18 -7 -21 7 -8 47 14 47 26 0 15 -26 12 -40
-5z"/>
<path d="M2093 273 c-16 -6 -17 -23 -2 -23 6 0 18 -7 26 -16 9 -8 24 -13 34
-11 11 3 22 1 25 -4 6 -11 24 -2 24 12 0 5 -12 9 -28 9 -16 0 -32 8 -40 20
-12 20 -18 22 -39 13z"/>
<path d="M983 202 c1 -23 7 -41 12 -40 12 4 7 59 -6 72 -5 6 -8 -7 -6 -32z"/>
<path d="M1990 203 c1 -5 7 -19 15 -33 24 -42 12 -56 -20 -23 -14 13 -18 14
-25 3 -6 -10 -10 -7 -15 13 -7 25 -25 38 -25 17 0 -19 23 -59 31 -54 16 9 10
-13 -7 -27 -13 -10 -24 -10 -61 -1 -25 7 -48 10 -51 7 -12 -11 15 -25 61 -31
43 -6 50 -4 72 20 18 19 31 25 45 21 15 -5 20 -2 21 12 0 10 3 13 5 6 3 -7 12
-9 20 -6 21 8 17 23 -5 23 -11 0 -23 5 -26 10 -3 6 1 10 9 10 9 0 16 7 16 15
0 8 -6 12 -14 9 -8 -3 -17 -1 -21 5 -7 13 -25 15 -25 4z"/>
<path d="M1535 190 c3 -5 -1 -10 -9 -10 -9 0 -16 -4 -16 -10 0 -11 6 -12 38
-4 18 5 20 9 11 20 -13 16 -33 19 -24 4z"/>
<path d="M940 181 c0 -5 -10 -7 -22 -3 -14 3 -19 2 -14 -6 4 -7 19 -12 34 -12
21 0 24 -2 12 -10 -9 -6 -10 -10 -3 -10 17 0 24 15 17 34 -7 17 -24 22 -24 7z"/>
<path d="M1638 183 c-10 -2 -18 -9 -18 -15 0 -6 10 -8 23 -4 12 3 25 6 30 6 4
0 7 5 7 10 0 10 -12 11 -42 3z"/>
<path d="M2060 172 c0 -12 58 -13 65 -1 4 5 -10 9 -29 9 -20 0 -36 -4 -36 -8z"/>
<path d="M1300 145 c0 -11 35 -45 47 -45 8 0 5 10 -9 25 -20 23 -38 32 -38 20z"/>
<path d="M1630 121 c8 -6 11 -11 6 -11 -5 0 -1 -9 9 -20 10 -11 25 -19 34 -19
14 1 14 2 1 5 -9 3 -20 14 -25 26 -6 12 -17 23 -25 26 -13 3 -13 2 0 -7z"/>
<path d="M1276 78 c-13 -14 -21 -17 -26 -9 -3 7 -22 11 -41 10 -19 -2 -40 1
-47 5 -19 12 -14 -1 12 -28 15 -17 34 -26 55 -26 17 0 31 -4 31 -10 0 -13 86
-13 109 0 13 6 24 5 37 -5 11 -8 30 -14 44 -14 24 -1 23 0 -7 15 -18 9 -30 20
-27 25 3 5 10 7 15 4 5 -4 9 -3 9 2 0 4 -11 13 -25 20 -21 9 -25 9 -25 -6 0
-9 -13 -22 -30 -28 -24 -9 -30 -9 -30 2 0 7 -10 16 -22 20 -20 6 -21 8 -5 12
10 3 16 10 14 16 -6 18 -21 16 -41 -5z m-21 -28 c4 -6 -6 -10 -24 -10 -16 0
-33 5 -36 10 -4 6 6 10 24 10 16 0 33 -4 36 -10z"/>
<path d="M1770 90 c8 -5 11 -10 5 -11 -5 -1 5 -4 22 -8 45 -8 28 -32 -25 -35
-23 -1 -44 -5 -48 -9 -12 -12 -26 -8 -18 5 5 8 2 9 -10 5 -10 -4 -22 -7 -27
-7 -5 0 -9 -4 -9 -10 0 -15 95 -9 157 10 l55 17 -32 23 c-18 13 -45 25 -59 26
-19 2 -22 1 -11 -6z"/>
<path d="M1115 70 c10 -11 25 -20 34 -20 12 1 10 5 -8 20 -30 26 -49 26 -26 0z"/>
<path d="M1596 52 c-3 -5 -19 -12 -36 -15 -16 -4 -30 -11 -30 -17 0 -7 8 -9
20 -5 11 4 20 2 20 -4 0 -6 7 -11 16 -11 10 0 14 6 11 14 -3 7 0 19 6 25 6 6
8 13 5 16 -3 4 -9 2 -12 -3z"/>
<path d="M1640 45 c0 -8 -4 -15 -10 -15 -5 0 -10 -7 -10 -15 0 -8 7 -15 15
-15 8 0 12 6 9 14 -3 7 2 16 10 19 20 8 21 27 1 27 -8 0 -15 -7 -15 -15z"/>
</g>
</svg>
